<svg xmlns="http://www.w3.org/2000/svg" width="512" height="512" viewBox="0 0 512 512">
  <g id="Group_2" data-name="Group 2" transform="translate(-847 -243)">
    <rect id="Rectangle_2" data-name="Rectangle 2" width="512" height="512" transform="translate(847 243)"/>
    <g id="Group_1" data-name="Group 1" transform="translate(51 96)">
      <rect id="Rectangle_1" data-name="Rectangle 1" width="170" height="320" transform="translate(967 243)" fill="none"/>
      <path id="Path_8" data-name="Path 8" d="M142.929,187.241V107.107a13.333,13.333,0,1,0-26.667,0v80.133H92.4a6.6,6.6,0,0,0-4.667,11.333l37.2,37.067a6.846,6.846,0,0,0,9.467,0l37.2-37.067a6.628,6.628,0,0,0-4.667-11.333Zm-98-182.133-37.2,37.2A6.6,6.6,0,0,0,12.4,53.641H36.262v80.133a13.333,13.333,0,1,0,26.667,0V53.641H86.8a6.6,6.6,0,0,0,4.667-11.333l-37.2-37.2a6.681,6.681,0,0,0-9.333,0Z" transform="translate(962.542 282.918)" fill="#fff"/>
    </g>
  </g>
</svg>
