<svg xmlns="http://www.w3.org/2000/svg" width="512" height="512" viewBox="0 0 512 512">
  <g id="Group_2" data-name="Group 2" transform="translate(-847 -243)">
    <rect id="Rectangle_2" data-name="Rectangle 2" width="512" height="512" transform="translate(847 243)"/>
    <g id="Group_1" data-name="Group 1" transform="translate(9 16)">
      <rect id="Rectangle_1" data-name="Rectangle 1" width="255" height="480" transform="translate(967 243)" fill="none"/>
      <path id="Path_8" data-name="Path 8" d="M211.539,279.258v-120.2a20,20,0,1,0-40,0v120.2h-35.8a9.9,9.9,0,0,0-7,17l55.8,55.6a10.269,10.269,0,0,0,14.2,0l55.8-55.6c6.4-6.2,1.8-17-7-17Zm-147-273.2-55.8,55.8a9.9,9.9,0,0,0,7,17h35.8v120.2a20,20,0,1,0,40,0V78.857h35.8a9.9,9.9,0,0,0,7-17l-55.8-55.8a10.021,10.021,0,0,0-14,0Z" transform="translate(963.167 304.48)" fill="#fff"/>
    </g>
  </g>
</svg>
